<?xml version="1.0" standalone="no"?>
<!DOCTYPE svg PUBLIC "-//W3C//DTD SVG 20010904//EN"
 "http://www.w3.org/TR/2001/REC-SVG-20010904/DTD/svg10.dtd">
<svg version="1.0" xmlns="http://www.w3.org/2000/svg"
 width="864.000000pt" height="864.000000pt" viewBox="0 0 864.000000 864.000000"
 preserveAspectRatio="xMidYMid meet">
<metadata>
Created by potrace 1.14, written by Peter Selinger 2001-2017
</metadata>
<g transform="translate(0.000000,864.000000) scale(0.100000,-0.100000)"
fill="#000000" stroke="none">
<path d="M0 4335 l0 -3825 2869 0 2868 0 1 443 c1 556 0 519 13 515 7 -2 10
-153 10 -496 l0 -492 1439 0 1440 0 0 3840 0 3840 -1440 0 -1439 0 0 -457 c0
-252 0 -469 -1 -482 0 -19 -3 -22 -12 -13 -8 8 -12 135 -12 479 l-1 468 -2867
3 -2868 2 0 -3825z m5760 2370 c1 -47 1 -195 1 -330 0 -403 0 -390 -13 -377
-8 8 -11 117 -10 394 1 440 -1 398 12 398 6 0 10 -35 10 -85z m0 -1387 c1 -60
1 -421 0 -517 0 -49 -3 -62 -11 -54 -18 18 -19 623 -1 623 8 0 12 -17 12 -52z
m1 -1189 c1 -140 -2 -204 -10 -207 -13 -4 -13 -5 -13 224 -1 152 4 205 18 191
3 -2 5 -96 5 -208z m0 -824 c0 -126 -4 -202 -10 -208 -13 -13 -12 -29 -13 204
0 168 4 220 19 206 2 -3 4 -94 4 -202z m0 -1021 c0 -214 0 -396 -1 -404 0 -10
-3 -11 -12 -2 -8 8 -11 120 -10 409 0 219 1 400 1 403 1 2 6 -1 11 -6 7 -7 11
-142 11 -400z"/>
</g>
</svg>
